# xmcd
#
# Track frame offsets:
#	150
#	18524
#	40145
#	58927
#	76443
#	101301
#	118735
#	144332
#	163466
#	192065
#	212552
#	237424
#
# Disc length: 3409 seconds
#
# Revision: 1
# Processed by: cddbd v1.5.2PL0 Copyright (c) Steve Scherf et al.
# Submitted via: audiograbber 1.83.01
#
DISCID=a40d4f0c
DTITLE=Studebaker John - Waiting On The Sun...
DYEAR=2008
DGENRE=Blues
TTITLE0=Down at the Bottom
TTITLE1=She Just Won't Roll
TTITLE2=Every Night is a Saturday Night
TTITLE3=Hell to Pay
TTITLE4=Partner in Crime
TTITLE5=Nothing but the Rain
TTITLE6=Natural Born Boogie
TTITLE7=Follow Your Soul
TTITLE8=Tell Me So
TTITLE9=Let It Roll On
TTITLE10=I'll Be Rockin'
TTITLE11=Waiting on the Sun
EXTD=
EXTT0=
EXTT1=
EXTT2=
EXTT3=
EXTT4=
EXTT5=
EXTT6=
EXTT7=
EXTT8=
EXTT9=
EXTT10=
EXTT11=
PLAYORDER=
